<svg width="64" height="64" viewBox="0 0 64 64" fill="none" xmlns="http://www.w3.org/2000/svg" role="img" aria-labelledby="title desc">
  <title id="title">Coliseo</title>
  <desc id="desc">The Colosseum on a teal-to-sky tile.</desc>
  <rect x="4" y="4" width="56" height="56" rx="18" fill="url(#tile)"/>
  <path d="M13 47 L13 21 L38 21 L38 25 L51 25 L51 47 Z" fill="#fff"/>
  <g fill="url(#tile)">
    <path d="M16 46 L16 38 A2.5 2.5 0 0 1 21 38 L21 46 Z"/>
    <path d="M22.75 46 L22.75 38 A2.5 2.5 0 0 1 27.75 38 L27.75 46 Z"/>
    <path d="M29.5 46 L29.5 38 A2.5 2.5 0 0 1 34.5 38 L34.5 46 Z"/>
    <path d="M36.25 46 L36.25 38 A2.5 2.5 0 0 1 41.25 38 L41.25 46 Z"/>
    <path d="M43 46 L43 38 A2.5 2.5 0 0 1 48 38 L48 46 Z"/>
    <path d="M17.45 34 L17.45 29 A1.8 1.8 0 0 1 21.05 29 L21.05 34 Z"/>
    <path d="M22.55 34 L22.55 29 A1.8 1.8 0 0 1 26.15 29 L26.15 34 Z"/>
    <path d="M27.65 34 L27.65 29 A1.8 1.8 0 0 1 31.25 29 L31.25 34 Z"/>
    <path d="M32.75 34 L32.75 29 A1.8 1.8 0 0 1 36.35 29 L36.35 34 Z"/>
    <path d="M37.85 34 L37.85 29 A1.8 1.8 0 0 1 41.45 29 L41.45 34 Z"/>
    <path d="M42.95 34 L42.95 29 A1.8 1.8 0 0 1 46.55 29 L46.55 34 Z"/>
  </g>
  <path d="M11 47.4 L53 47.4" stroke="#fff" stroke-width="1.8" stroke-linecap="round"/>
  <defs>
    <linearGradient id="tile" x1="10" y1="54" x2="56" y2="10" gradientUnits="userSpaceOnUse">
      <stop stop-color="#0A8F93"/>
      <stop offset=".56" stop-color="#0EB6A6"/>
      <stop offset="1" stop-color="#37B6FF"/>
    </linearGradient>
  </defs>
</svg>
